<svg width="106" height="89" viewBox="0 0 106 89" fill="none" xmlns="http://www.w3.org/2000/svg">
<path d="M1 87.884V1H105V87.884H1Z" stroke="black"/>
<path d="M60.5 34.5C60.5 38.3361 57.173 41.5 53 41.5C48.827 41.5 45.5 38.3361 45.5 34.5C45.5 30.6639 48.827 27.5 53 27.5C57.173 27.5 60.5 30.6639 60.5 34.5Z" stroke="black"/>
<path d="M73.5 62H33C34.1667 57 39.8 47 53 47C66.2 47 72.1667 57 73.5 62Z" stroke="black"/>
<path d="M36.8996 41C36.8996 44.0077 34.289 46.5 30.9996 46.5C27.7102 46.5 25.0996 44.0077 25.0996 41C25.0996 37.9923 27.7102 35.5 30.9996 35.5C34.289 35.5 36.8996 37.9923 36.8996 41Z" stroke="black"/>
<path d="M79.8996 41C79.8996 44.0077 77.289 46.5 73.9996 46.5C70.7102 46.5 68.0996 44.0077 68.0996 41C68.0996 37.9923 70.7102 35.5 73.9996 35.5C77.289 35.5 79.8996 37.9923 79.8996 41Z" stroke="black"/>
<path d="M74 61.9496C72.4 57.1496 68.6667 52.9496 67 51.4496C82.6 46.2496 89.5 56.2829 91 61.9496H74Z" stroke="black"/>
<path d="M33 61.9496C34.6 57.1496 38.3333 52.9496 40 51.4496C24.4 46.2496 17.5 56.2829 16 61.9496H33Z" stroke="black"/>
</svg>
