<svg width="66" height="62" viewBox="0 0 66 62" fill="none" xmlns="http://www.w3.org/2000/svg">
<g filter="url(#filter0_d_1182_472)">
<path d="M4.91868 30.4626C5.73038 28.826 7.50476 27.8844 9.33019 28.1217L23.8106 30.0033C24.1807 30.0514 24.5555 30.0515 24.9256 30.0036L39.4048 28.1297C41.2301 27.8934 43.0051 28.8359 43.8178 30.4729L44.6276 32.1042C45.9479 34.7637 44.1899 37.9112 41.215 38.2141L24.8113 39.8844C24.5186 39.9143 24.2235 39.9142 23.9308 39.8842L7.52615 38.2051C4.55101 37.9006 2.79114 34.7522 4.10985 32.0934L4.91868 30.4626Z" fill="url(#paint0_linear_1182_472)"/>
<path d="M6.15744 31.5953C6.96953 29.9601 8.74284 29.0195 10.5672 29.2562L23.8106 30.9749C24.1802 31.0228 24.5545 31.0229 24.9241 30.9752L38.1665 29.2636C39.9907 29.0278 41.7646 29.9693 42.5777 31.605L43.0469 32.5489C44.3692 35.2088 42.6109 38.3582 39.6347 38.6609L24.8098 40.1685C24.5175 40.1982 24.2228 40.1981 23.9304 40.1682L9.10465 38.6528C6.12827 38.3485 4.36812 35.1982 5.68877 32.539L6.15744 31.5953Z" fill="#2DCBD0" fill-opacity="0.1"/>
<path d="M42.0492 35.8932C42.0519 44.7854 34.1703 55.2545 24.444 55.2519C14.7177 55.2493 6.82981 44.776 6.82713 35.8839C6.82444 26.9917 14.707 19.7853 24.4333 19.7879C34.1596 19.7905 42.0466 27.0011 42.0492 35.8932Z" fill="url(#paint1_linear_1182_472)"/>
<path fill-rule="evenodd" clip-rule="evenodd" d="M33.5192 22.0953C31.2045 21.0722 28.6081 20.4983 25.8653 20.4975C16.139 20.495 8.25645 27.7014 8.25913 36.5935C8.26112 43.1616 12.5651 50.5923 18.7344 54.0289C11.8094 51.0125 6.82926 42.9491 6.82713 35.8839C6.82444 26.9917 14.707 19.7853 24.4333 19.7879C27.7572 19.7888 30.8662 20.6314 33.5192 22.0953Z" fill="url(#paint2_linear_1182_472)"/>
<path fill-rule="evenodd" clip-rule="evenodd" d="M6.83546 35.6162C11.388 36.3082 17.105 36.3824 22.6333 34.8991C28.1536 33.4179 33.4892 30.3807 37.2739 24.8655C37.0673 24.6646 36.8551 24.4685 36.6375 24.2775C32.9766 29.6745 27.7944 32.6324 22.4083 34.0775C16.9772 35.5348 11.3426 35.4508 6.87496 34.7612C6.85372 35.0442 6.84048 35.3293 6.83546 35.6162Z" fill="#2DCBD0" fill-opacity="0.2"/>
<path d="M13.6612 31.1336C14.1363 29.3247 15.9912 28.2311 17.8231 28.68C22.1677 29.7445 26.7078 29.7457 31.0518 28.6835C32.8834 28.2356 34.739 29.3301 35.2152 31.1393L36.0783 34.419C36.5994 36.3991 35.3261 38.4033 33.2991 38.7933L29.9077 39.446C26.2971 40.1408 22.5847 40.1398 18.9737 39.4431L15.5819 38.7886C13.5546 38.3975 12.2801 36.3927 12.8 34.4128L13.6612 31.1336Z" fill="#344142"/>
<path d="M21.5778 34.3251C21.5782 35.6961 20.9055 36.8074 20.0752 36.8072C19.2449 36.8069 18.5715 35.6953 18.5711 34.3243C18.5706 32.9532 19.2434 31.842 20.0737 31.8422C20.904 31.8424 21.5774 32.954 21.5778 34.3251Z" fill="#60BCFA"/>
<path d="M21.0018 33.9711C21.002 34.5979 20.7137 35.1059 20.3579 35.1058C20.002 35.1057 19.7134 34.5975 19.7132 33.9708C19.713 33.344 20.0014 32.836 20.3572 32.8361C20.713 32.8362 21.0017 33.3444 21.0018 33.9711Z" fill="white"/>
<path d="M27.1412 49.8761C29.0356 49.2889 30.2542 47.5877 30.2647 45.7587C30.2685 45.0957 29.4965 44.8212 28.9228 45.1856L27.6462 45.9964C26.6966 46.5995 25.5975 46.9402 24.4681 46.9815L22.9498 47.0369C22.2674 47.0619 21.7946 47.7222 22.1838 48.2634C23.2574 49.7563 25.2467 50.4633 27.1412 49.8761Z" fill="#60BCFA"/>
<path fill-rule="evenodd" clip-rule="evenodd" d="M24.049 49.7341C23.5807 49.4394 23.1688 49.0575 22.8419 48.6028C22.4527 48.0614 22.9258 47.4011 23.6085 47.3763L25.1276 47.3211C26.2576 47.28 27.3573 46.9395 28.3075 46.3365L29.5849 45.5257C29.7669 45.4102 29.9689 45.3589 30.1597 45.3639C29.927 45.0022 29.3683 44.9044 28.9268 45.1846L27.6493 45.9954C26.6991 46.5984 25.5995 46.9389 24.4695 46.98L22.9504 47.0351C22.2676 47.0599 21.7945 47.7203 22.1838 48.2617C22.6566 48.9194 23.3071 49.4246 24.049 49.7341Z" fill="white"/>
<path d="M27.5874 20.2113C27.5877 20.9947 26.1776 21.6294 24.4379 21.629C22.6982 21.6285 21.2878 20.993 21.2875 20.2096C21.2873 19.4261 22.6974 18.7914 24.4371 18.7919C26.1767 18.7923 27.5872 19.4278 27.5874 20.2113Z" fill="url(#paint3_linear_1182_472)"/>
<path fill-rule="evenodd" clip-rule="evenodd" d="M27.6113 10.8958C27.8238 11.2262 27.7258 11.6646 27.3923 11.875C26.455 12.4663 25.8932 13.8326 25.5963 15.5134C25.3322 17.0088 25.3101 18.5482 25.2958 19.5432C25.2945 19.6332 25.2932 19.7187 25.2919 19.7994C25.2854 20.1911 24.9597 20.5032 24.5643 20.4965C24.169 20.4898 23.8538 20.1669 23.8603 19.7753C23.8616 19.6956 23.8628 19.6098 23.8641 19.5183C23.8779 18.5302 23.901 16.8817 24.186 15.2681C24.4885 13.5554 25.1266 11.6222 26.6228 10.6783C26.9563 10.4679 27.3988 10.5653 27.6113 10.8958Z" fill="url(#paint4_linear_1182_472)"/>
<g filter="url(#filter1_d_1182_472)">
<path d="M29.4424 11.3458C29.4428 12.6385 28.3854 13.6861 27.0807 13.6858C25.7759 13.6854 24.7179 12.6372 24.7175 11.3445C24.7171 10.0518 25.7745 9.00419 27.0793 9.00453C28.384 9.00488 29.442 10.0531 29.4424 11.3458Z" fill="#60BCFA"/>
</g>
<path d="M27.8525 11.3931C27.6504 12.2963 27.1552 12.9556 26.7465 12.8656C26.3377 12.7756 26.1702 11.9704 26.3723 11.0672C26.5744 10.1639 27.0696 9.5046 27.4784 9.59459C27.8871 9.68459 28.0546 10.4898 27.8525 11.3931Z" fill="white"/>
<path fill-rule="evenodd" clip-rule="evenodd" d="M30.4642 33.1566C30.6236 33.2726 30.6578 33.4946 30.5408 33.6524L29.8333 34.6062C29.2455 35.3986 28.1188 35.5653 27.3223 34.9775L26.4939 34.3662C26.3353 34.2492 26.3025 34.027 26.4205 33.87C26.5385 33.7129 26.7628 33.6805 26.9214 33.7975L27.7498 34.4088C28.2276 34.7614 28.9037 34.6615 29.2563 34.186L29.9638 33.2321C30.0809 33.0744 30.3049 33.0405 30.4642 33.1566Z" fill="#60BCFA"/>
<g filter="url(#filter2_d_1182_472)">
<path fill-rule="evenodd" clip-rule="evenodd" d="M29.5881 19.5014C28.8754 20.2076 28.8758 21.3444 28.8765 23.618L28.8767 24.3273C28.8774 26.6009 28.8777 27.7378 29.5908 28.4443C29.9687 28.8187 30.4686 28.9947 31.1965 29.0776C31.3123 29.3046 31.4685 29.5726 31.657 29.8959L31.719 30.0023C32.2704 30.9481 32.5461 31.4211 32.9594 31.4212C33.3727 31.4213 33.6482 30.9485 34.199 30.003L34.2609 29.8966C34.4293 29.6076 34.5719 29.3627 34.6829 29.152L42.0506 29.1539C44.3455 29.1545 45.4929 29.1548 46.2056 28.4487C46.9183 27.7426 46.918 26.6057 46.9173 24.3321L46.9171 23.6228C46.9164 21.3492 46.916 20.2124 46.2029 19.5059C45.4898 18.7993 44.3423 18.799 42.0475 18.7984L33.7431 18.7962C31.4483 18.7956 30.3008 18.7953 29.5881 19.5014Z" fill="#60BCFA"/>
</g>
<path d="M34.5979 23.9733C34.5981 24.4826 34.1815 24.8953 33.6676 24.8952C33.1536 24.895 32.7368 24.4821 32.7366 23.9728C32.7365 23.4636 33.153 23.0509 33.667 23.051C34.181 23.0512 34.5978 23.4641 34.5979 23.9733Z" fill="#F9F9F9"/>
<path d="M38.8948 23.9753C38.895 24.4845 38.4784 24.8972 37.9644 24.8971C37.4504 24.897 37.0336 24.484 37.0335 23.9748C37.0333 23.4656 37.4499 23.0528 37.9639 23.053C38.4779 23.0531 38.8947 23.4661 38.8948 23.9753Z" fill="#F9F9F9"/>
<path d="M43.1878 23.9772C43.1879 24.4865 42.7714 24.8992 42.2574 24.8991C41.7434 24.8989 41.3266 24.486 41.3265 23.9768C41.3263 23.4675 41.7428 23.0548 42.2568 23.0549C42.7708 23.0551 43.1876 23.468 43.1878 23.9772Z" fill="#344142"/>
</g>
<defs>
<filter id="filter0_d_1182_472" x="0.294909" y="9" width="49.9942" height="52.9824" filterUnits="userSpaceOnUse" color-interpolation-filters="sRGB">
<feFlood flood-opacity="0" result="BackgroundImageFix"/>
<feColorMatrix in="SourceAlpha" type="matrix" values="0 0 0 0 0 0 0 0 0 0 0 0 0 0 0 0 0 0 127 0" result="hardAlpha"/>
<feOffset dy="3.36329"/>
<feGaussianBlur stdDeviation="1.68165"/>
<feComposite in2="hardAlpha" operator="out"/>
<feColorMatrix type="matrix" values="0 0 0 0 0 0 0 0 0 0 0 0 0 0 0 0 0 0 0.25 0"/>
<feBlend mode="normal" in2="BackgroundImageFix" result="effect1_dropShadow_1182_472"/>
<feBlend mode="normal" in="SourceGraphic" in2="effect1_dropShadow_1182_472" result="shape"/>
</filter>
<filter id="filter1_d_1182_472" x="14.9081" y="0.176109" width="24.3439" height="24.299" filterUnits="userSpaceOnUse" color-interpolation-filters="sRGB">
<feFlood flood-opacity="0" result="BackgroundImageFix"/>
<feColorMatrix in="SourceAlpha" type="matrix" values="0 0 0 0 0 0 0 0 0 0 0 0 0 0 0 0 0 0 127 0" result="hardAlpha"/>
<feOffset dy="0.980866"/>
<feGaussianBlur stdDeviation="4.90433"/>
<feColorMatrix type="matrix" values="0 0 0 0 0.176471 0 0 0 0 0.796078 0 0 0 0 0.815686 0 0 0 0.6 0"/>
<feBlend mode="normal" in2="BackgroundImageFix" result="effect1_dropShadow_1182_472"/>
<feBlend mode="normal" in="SourceGraphic" in2="effect1_dropShadow_1182_472" result="shape"/>
</filter>
<filter id="filter2_d_1182_472" x="10.2675" y="1.16834" width="55.2598" height="49.8438" filterUnits="userSpaceOnUse" color-interpolation-filters="sRGB">
<feFlood flood-opacity="0" result="BackgroundImageFix"/>
<feColorMatrix in="SourceAlpha" type="matrix" values="0 0 0 0 0 0 0 0 0 0 0 0 0 0 0 0 0 0 127 0" result="hardAlpha"/>
<feOffset dy="0.980866"/>
<feGaussianBlur stdDeviation="9.3047"/>
<feColorMatrix type="matrix" values="0 0 0 0 0.321719 0 0 0 0 0.361249 0 0 0 0 0.3625 0 0 0 0.15 0"/>
<feBlend mode="normal" in2="BackgroundImageFix" result="effect1_dropShadow_1182_472"/>
<feBlend mode="normal" in="SourceGraphic" in2="effect1_dropShadow_1182_472" result="shape"/>
</filter>
<linearGradient id="paint0_linear_1182_472" x1="45.428" y1="32.0923" x2="2.95336" y2="32.4246" gradientUnits="userSpaceOnUse">
<stop stop-color="white"/>
<stop offset="0.492827" stop-color="#B3ECEE" stop-opacity="0.9"/>
<stop offset="1" stop-color="white"/>
</linearGradient>
<linearGradient id="paint1_linear_1182_472" x1="24.4333" y1="19.7879" x2="24.4229" y2="59.0111" gradientUnits="userSpaceOnUse">
<stop stop-color="white"/>
<stop offset="0.584161" stop-color="white"/>
<stop offset="1" stop-color="#CEF8FA" stop-opacity="0.9"/>
</linearGradient>
<linearGradient id="paint2_linear_1182_472" x1="24.4333" y1="19.7879" x2="9.77404" y2="55.8341" gradientUnits="userSpaceOnUse">
<stop stop-color="#FAFAFA"/>
<stop offset="0.584161" stop-color="#FAFAFA"/>
<stop offset="1" stop-color="#CEF8FA"/>
</linearGradient>
<linearGradient id="paint3_linear_1182_472" x1="24.4371" y1="18.7919" x2="24.4362" y2="21.9297" gradientUnits="userSpaceOnUse">
<stop stop-color="white"/>
<stop offset="0.584161" stop-color="white"/>
<stop offset="1" stop-color="#CEF8FA" stop-opacity="0.9"/>
</linearGradient>
<linearGradient id="paint4_linear_1182_472" x1="25.7904" y1="10.5669" x2="25.7875" y2="21.5495" gradientUnits="userSpaceOnUse">
<stop stop-color="white"/>
<stop offset="0.584161" stop-color="white"/>
<stop offset="1" stop-color="#CEF8FA" stop-opacity="0.9"/>
</linearGradient>
</defs>
</svg>
