<svg width="132" height="106" viewBox="0 0 132 106" fill="none" xmlns="http://www.w3.org/2000/svg">
<path d="M64.7234 2.0528L4.0368 52.0995C-1.02805 56.2764 1.92547 64.5 8.49043 64.5H20.5V101C20.5 103.209 22.2909 105 24.5 105H50.5C52.7091 105 54.5 103.209 54.5 101V80.6362C54.5 78.5944 55.0979 76.5708 56.3775 74.9797C62.9236 66.8401 68.5764 66.8401 75.1225 74.9797C76.4021 76.5708 77 78.5944 77 80.6362V101C77 103.209 78.7909 105 81 105H106.5C108.709 105 110.5 103.209 110.5 101V64.5H123.107C129.661 64.5 132.621 56.2997 127.578 52.1138L67.2732 2.05688C66.5345 1.44363 65.4641 1.44192 64.7234 2.0528Z" stroke="#0F0F0F" stroke-width="2"/>
</svg>
