<svg width="90" height="98" viewBox="0 0 90 98" fill="none" xmlns="http://www.w3.org/2000/svg">
<path d="M64.4754 49.0705L63.535 49.4107L63.635 49.6871L63.8687 49.8654L64.4754 49.0705ZM55.9165 58.1999L56.5132 57.3974L54.9165 56.2102V58.1999H55.9165ZM55.9165 63.9058H54.9165V64.325L55.2155 64.6189L55.9165 63.9058ZM29.6695 78.7411L30.0113 79.6809L30.0346 79.6724L30.0575 79.6627L29.6695 78.7411ZM26.8165 96.4293V97.4293C27.2683 97.4293 27.664 97.1264 27.7819 96.6903C27.8998 96.2542 27.7107 95.7932 27.3205 95.5656L26.8165 96.4293ZM30.2412 63.9058L30.9735 64.5867L31.2412 64.2989V63.9058H30.2412ZM30.2412 58.1999H31.2412V56.1655L29.6304 57.4081L30.2412 58.1999ZM22.2529 49.0705L22.8803 49.8493L23.1198 49.6563L23.2095 49.3621L22.2529 49.0705ZM4.57638 63.3099L3.94905 62.5312L4.57638 63.3099ZM12.3279 72.0187L12.9387 72.8105L12.3279 72.0187ZM7.68409 73.3528L7.5264 74.3403L7.68409 73.3528ZM47.2239 79.4765L47.7989 78.6583L47.2239 79.4765ZM29.5491 82.7249L30.2792 83.4082L29.5491 82.7249ZM33.6199 96.4513L33.6297 95.4513L33.6199 96.4513ZM29.6577 94.9995L28.9664 95.7221L29.6577 94.9995ZM72.2341 96.8298L72.2439 95.8299L72.2341 96.8298ZM75.2415 72.5697L74.6448 73.3722L75.2415 72.5697ZM83.0137 63.2181L82.407 64.0131L83.0137 63.2181ZM85.2496 69.4531L86.168 69.8488L85.2496 69.4531ZM57.7885 34.5758L58.5759 33.9594L57.7885 34.5758ZM33.8117 33.5234H53.136V31.5234H33.8117V33.5234ZM57.001 35.1922C59.4413 38.3098 61.0095 42.4299 63.535 49.4107L65.4157 48.7303C62.9231 41.8402 61.2537 37.3805 58.5759 33.9594L57.001 35.1922ZM63.8687 49.8654L82.407 64.0131L83.6203 62.4232L65.082 48.2755L63.8687 49.8654ZM84.3312 69.0575C83.7115 70.496 82.7254 71.5482 81.0531 72.4619L82.012 74.217C84.0131 73.1238 85.3449 71.7593 86.168 69.8488L84.3312 69.0575ZM75.8382 71.7673L56.5132 57.3974L55.3198 59.0024L74.6448 73.3722L75.8382 71.7673ZM54.9165 58.1999V63.9058H56.9165V58.1999H54.9165ZM55.2155 64.6189L76.5089 85.5514L77.911 84.1252L56.6176 63.1927L55.2155 64.6189ZM72.2439 95.8299L33.6297 95.4513L33.6101 97.4512L72.2243 97.8298L72.2439 95.8299ZM30.349 94.277C28.5166 92.5239 27.6901 90.7306 27.6749 88.9896C27.6597 87.2405 28.4615 85.3502 30.2792 83.4082L28.819 82.0415C26.7683 84.2324 25.654 86.5944 25.675 89.007C25.6961 91.4274 26.858 93.705 28.9664 95.7221L30.349 94.277ZM33.8803 82.0234H46.6561V80.0234H33.8803V82.0234ZM47.7989 78.6583C44.42 76.2837 38.3044 74.0207 29.2815 77.8194L30.0575 79.6627C38.3955 76.1523 43.7877 78.2838 46.6489 80.2946L47.7989 78.6583ZM29.3277 77.8013C25.7721 79.0945 23.1779 82.871 22.3451 86.7324C21.5063 90.6213 22.3839 95.0009 26.3126 97.2931L27.3205 95.5656C24.4033 93.8636 23.5697 90.5403 24.3001 87.1541C25.0364 83.7406 27.2916 80.67 30.0113 79.6809L29.3277 77.8013ZM26.8165 95.4293H16.0672V97.4293H26.8165V95.4293ZM11.6732 85.3437L30.9735 64.5867L29.5088 63.2248L10.2085 83.9818L11.6732 85.3437ZM31.2412 63.9058V58.1999H29.2412V63.9058H31.2412ZM29.6304 57.4081L11.7171 71.2269L12.9387 72.8105L30.852 58.9917L29.6304 57.4081ZM7.84178 72.3653C6.49351 72.15 5.54513 71.8059 4.85196 71.2917C4.17805 70.7918 3.6609 70.068 3.29058 68.927L1.38826 69.5444C1.85883 70.9943 2.58615 72.1011 3.6604 72.898C4.71541 73.6806 6.01892 74.0995 7.5264 74.3403L7.84178 72.3653ZM5.20371 64.0887L22.8803 49.8493L21.6256 48.2917L3.94905 62.5312L5.20371 64.0887ZM23.2095 49.3621C25.1621 42.9567 26.5143 39.2669 29.6112 35.4033L28.0506 34.1525C24.6959 38.3377 23.2557 42.3514 21.2964 48.7789L23.2095 49.3621ZM3.29058 68.927C2.75484 67.2763 3.59533 65.3843 5.20371 64.0887L3.94905 62.5312C1.97049 64.125 0.502134 66.8141 1.38826 69.5444L3.29058 68.927ZM11.7171 71.2269C10.5542 72.1241 9.16435 72.5765 7.84178 72.3653L7.5264 74.3403C9.51458 74.6578 11.4471 73.9612 12.9387 72.8105L11.7171 71.2269ZM16.0672 95.4293C10.8263 95.4293 8.10445 89.1818 11.6732 85.3437L10.2085 83.9818C5.45019 89.0992 9.07936 97.4293 16.0672 97.4293V95.4293ZM46.6561 82.0234C47.5172 82.0234 48.2143 81.5074 48.483 80.7949C48.7607 80.0585 48.5481 79.1848 47.7989 78.6583L46.6489 80.2946C46.6593 80.3019 46.6277 80.2805 46.6098 80.2206C46.5937 80.1668 46.6002 80.1195 46.6117 80.0892C46.6228 80.0597 46.6397 80.0414 46.6545 80.0311C46.6732 80.0182 46.6799 80.0234 46.6561 80.0234V82.0234ZM30.2792 83.4082C31.1466 82.4815 32.4621 82.0234 33.8803 82.0234V80.0234C32.0664 80.0234 30.1603 80.6085 28.819 82.0415L30.2792 83.4082ZM33.6297 95.4513C32.3483 95.4388 31.1672 95.0597 30.349 94.277L28.9664 95.7221C30.2526 96.9526 31.9793 97.4352 33.6101 97.4512L33.6297 95.4513ZM76.5089 85.5514C80.3589 89.3361 77.6423 95.8828 72.2439 95.8299L72.2243 97.8298C79.4222 97.9004 83.0443 89.1714 77.911 84.1252L76.5089 85.5514ZM81.0531 72.4619C79.4869 73.3176 77.4602 72.9734 75.8382 71.7673L74.6448 73.3722C76.6925 74.8948 79.5651 75.5539 82.012 74.217L81.0531 72.4619ZM82.407 64.0131C84.1737 65.3614 85.0442 67.4023 84.3312 69.0575L86.168 69.8488C87.3971 66.9957 85.7558 64.0529 83.6203 62.4232L82.407 64.0131ZM53.136 33.5234C54.701 33.5234 56.1375 34.089 57.001 35.1922L58.5759 33.9594C57.238 32.2501 55.1427 31.5234 53.136 31.5234V33.5234ZM33.8117 31.5234C31.6423 31.5234 29.4683 32.3837 28.0506 34.1525L29.6112 35.4033C30.5905 34.1815 32.1485 33.5234 33.8117 33.5234V31.5234Z" fill="#0F0F0F"/>
<circle cx="43.3649" cy="15.4059" r="14.4059" stroke="#0F0F0F" stroke-width="2"/>
</svg>
